####
#
# OBJ File Generated by Meshlab
#
####
# Object cylinder_red.obj
#
# Vertices: 62
# Faces: 120
#
####
mtllib ./cylinder_red.mtl

vn -0.000000 -3.124383 -2.932153
v 0.500000 -0.000000 0.000000 0.752941 0.752941 0.752941
vn -0.000000 -3.124382 2.932154
v 0.500000 0.000000 1.000000 0.752941 0.752941 0.752941
vn -0.649596 -3.056107 -2.932153
v 0.396044 0.010926 0.000000 0.752941 0.752941 0.752941
vn -0.649596 -3.056107 2.932153
v 0.396044 0.010926 1.000000 0.752941 0.752941 0.752941
vn -1.270801 -2.854266 -2.932153
v 0.296632 0.043227 0.000000 0.752941 0.752941 0.752941
vn -1.270801 -2.854265 2.932154
v 0.296632 0.043227 1.000000 0.752941 0.752941 0.752941
vn -1.836466 -2.527679 -2.932153
v 0.206107 0.095491 0.000000 0.752941 0.752941 0.752941
vn -1.836465 -2.527678 2.932153
v 0.206107 0.095492 1.000000 0.752941 0.752941 0.752941
vn -2.321869 -2.090620 -2.932153
v 0.128428 0.165435 0.000000 0.752941 0.752941 0.752941
vn -2.321868 -2.090620 2.932153
v 0.128428 0.165435 1.000000 0.752941 0.752941 0.752941
vn -2.705794 -1.562191 -2.932153
v 0.066987 0.250000 0.000000 0.752941 0.752941 0.752941
vn -2.705794 -1.562191 2.932153
v 0.066987 0.250000 1.000000 0.752941 0.752941 0.752941
vn -2.971464 -0.965488 -2.932153
v 0.024472 0.345491 0.000000 0.752941 0.752941 0.752941
vn -2.971464 -0.965487 2.932153
v 0.024472 0.345492 1.000000 0.752941 0.752941 0.752941
vn -3.107267 -0.326587 -2.932153
v 0.002739 0.447736 0.000000 0.752941 0.752941 0.752941
vn -3.107267 -0.326587 2.932153
v 0.002739 0.447736 1.000000 0.752941 0.752941 0.752941
vn -3.107267 0.326587 -2.932153
v 0.002739 0.552264 0.000000 0.752941 0.752941 0.752941
vn -3.107267 0.326587 2.932153
v 0.002739 0.552264 1.000000 0.752941 0.752941 0.752941
vn -2.971464 0.965487 -2.932153
v 0.024472 0.654508 0.000000 0.752941 0.752941 0.752941
vn -2.971464 0.965487 2.932153
v 0.024472 0.654508 1.000000 0.752941 0.752941 0.752941
vn -2.705794 1.562191 -2.932153
v 0.066987 0.750000 0.000000 0.752941 0.752941 0.752941
vn -2.705794 1.562192 2.932153
v 0.066987 0.750000 1.000000 0.752941 0.752941 0.752941
vn -2.321868 2.090620 -2.932153
v 0.128428 0.834565 0.000000 0.752941 0.752941 0.752941
vn -2.321868 2.090620 2.932153
v 0.128428 0.834565 1.000000 0.752941 0.752941 0.752941
vn -1.836466 2.527678 -2.932153
v 0.206107 0.904508 0.000000 0.752941 0.752941 0.752941
vn -1.836466 2.527679 2.932153
v 0.206107 0.904508 1.000000 0.752941 0.752941 0.752941
vn -1.270801 2.854265 -2.932154
v 0.296632 0.956773 0.000000 0.752941 0.752941 0.752941
vn -1.270801 2.854266 2.932153
v 0.296632 0.956773 1.000000 0.752941 0.752941 0.752941
vn -0.649596 3.056107 -2.932153
v 0.396044 0.989074 0.000000 0.752941 0.752941 0.752941
vn -0.649596 3.056107 2.932152
v 0.396044 0.989074 1.000000 0.752941 0.752941 0.752941
vn -0.000000 3.124382 -2.932154
v 0.500000 1.000000 0.000000 0.752941 0.752941 0.752941
vn -0.000000 3.124383 2.932153
v 0.500000 1.000000 1.000000 0.752941 0.752941 0.752941
vn 0.649596 3.056107 -2.932153
v 0.603956 0.989074 0.000000 0.752941 0.752941 0.752941
vn 0.649596 3.056107 2.932152
v 0.603956 0.989074 1.000000 0.752941 0.752941 0.752941
vn 1.270801 2.854265 -2.932154
v 0.703368 0.956773 0.000000 0.752941 0.752941 0.752941
vn 1.270801 2.854265 2.932154
v 0.703368 0.956773 1.000000 0.752941 0.752941 0.752941
vn 1.836466 2.527678 -2.932153
v 0.793893 0.904508 0.000000 0.752941 0.752941 0.752941
vn 1.836466 2.527679 2.932153
v 0.793893 0.904508 1.000000 0.752941 0.752941 0.752941
vn 2.321868 2.090620 -2.932154
v 0.871572 0.834565 0.000000 0.752941 0.752941 0.752941
vn 2.321868 2.090621 2.932154
v 0.871572 0.834565 1.000000 0.752941 0.752941 0.752941
vn 2.705794 1.562191 -2.932152
v 0.933013 0.750000 0.000000 0.752941 0.752941 0.752941
vn 2.705794 1.562191 2.932152
v 0.933013 0.750000 1.000000 0.752941 0.752941 0.752941
vn 2.971464 0.965487 -2.932154
v 0.975528 0.654508 0.000000 0.752941 0.752941 0.752941
vn 2.971464 0.965487 2.932154
v 0.975528 0.654508 1.000000 0.752941 0.752941 0.752941
vn 3.107267 0.326587 -2.932153
v 0.997261 0.552264 0.000000 0.752941 0.752941 0.752941
vn 3.107267 0.326587 2.932153
v 0.997261 0.552264 1.000000 0.752941 0.752941 0.752941
vn 3.107267 -0.326587 -2.932153
v 0.997261 0.447736 0.000000 0.752941 0.752941 0.752941
vn 3.107267 -0.326587 2.932153
v 0.997261 0.447736 1.000000 0.752941 0.752941 0.752941
vn 2.971464 -0.965487 -2.932154
v 0.975528 0.345491 0.000000 0.752941 0.752941 0.752941
vn 2.971464 -0.965487 2.932154
v 0.975528 0.345492 1.000000 0.752941 0.752941 0.752941
vn 2.705794 -1.562191 -2.932152
v 0.933013 0.250000 0.000000 0.752941 0.752941 0.752941
vn 2.705794 -1.562191 2.932152
v 0.933013 0.250000 1.000000 0.752941 0.752941 0.752941
vn 2.321868 -2.090620 -2.932154
v 0.871572 0.165435 0.000000 0.752941 0.752941 0.752941
vn 2.321868 -2.090620 2.932154
v 0.871572 0.165435 1.000000 0.752941 0.752941 0.752941
vn 1.836466 -2.527679 -2.932153
v 0.793893 0.095491 0.000000 0.752941 0.752941 0.752941
vn 1.836466 -2.527678 2.932153
v 0.793893 0.095492 1.000000 0.752941 0.752941 0.752941
vn 1.270801 -2.854266 -2.932153
v 0.703368 0.043227 0.000000 0.752941 0.752941 0.752941
vn 1.270801 -2.854265 2.932154
v 0.703368 0.043227 1.000000 0.752941 0.752941 0.752941
vn 0.649596 -3.056107 -2.932153
v 0.603956 0.010926 0.000000 0.752941 0.752941 0.752941
vn 0.649596 -3.056107 2.932153
v 0.603956 0.010926 1.000000 0.752941 0.752941 0.752941
vn 0.000000 -0.000000 -6.283180
v 0.500000 0.500000 0.000000 0.752941 0.752941 0.752941
vn 0.000000 0.000000 6.283179
v 0.500000 0.500000 1.000000 0.752941 0.752941 0.752941
# 62 vertices, 0 vertices normals


usemtl material_0
vt 0.000000 1.000000
vt 0.000000 0.000000
vt 0.033333 1.000000
f 1/1/1 2/2/2 3/3/3
vt 0.033333 0.000000
f 2/2/2 4/4/4 3/3/3
vt 0.066667 1.000000
f 3/3/3 4/4/4 5/5/5
vt 0.066667 0.000000
f 4/4/4 6/6/6 5/5/5
vt 0.100000 1.000000
f 5/5/5 6/6/6 7/7/7
vt 0.100000 0.000000
f 6/6/6 8/8/8 7/7/7
vt 0.133333 1.000000
f 7/7/7 8/8/8 9/9/9
vt 0.133333 0.000000
f 8/8/8 10/10/10 9/9/9
vt 0.166667 1.000000
f 9/9/9 10/10/10 11/11/11
vt 0.166667 0.000000
f 10/10/10 12/12/12 11/11/11
vt 0.200000 1.000000
f 11/11/11 12/12/12 13/13/13
vt 0.200000 0.000000
f 12/12/12 14/14/14 13/13/13
vt 0.233333 1.000000
f 13/13/13 14/14/14 15/15/15
vt 0.233333 0.000000
f 14/14/14 16/16/16 15/15/15
vt 0.266667 1.000000
f 15/15/15 16/16/16 17/17/17
vt 0.266667 0.000000
f 16/16/16 18/18/18 17/17/17
vt 0.300000 1.000000
f 17/17/17 18/18/18 19/19/19
vt 0.300000 0.000000
f 18/18/18 20/20/20 19/19/19
vt 0.333333 1.000000
f 19/19/19 20/20/20 21/21/21
vt 0.333333 0.000000
f 20/20/20 22/22/22 21/21/21
vt 0.366667 1.000000
f 21/21/21 22/22/22 23/23/23
vt 0.366667 0.000000
f 22/22/22 24/24/24 23/23/23
vt 0.400000 1.000000
f 23/23/23 24/24/24 25/25/25
vt 0.400000 0.000000
f 24/24/24 26/26/26 25/25/25
vt 0.433333 1.000000
f 25/25/25 26/26/26 27/27/27
vt 0.433333 0.000000
f 26/26/26 28/28/28 27/27/27
vt 0.466667 1.000000
f 27/27/27 28/28/28 29/29/29
vt 0.466667 0.000000
f 28/28/28 30/30/30 29/29/29
vt 0.500000 1.000000
f 29/29/29 30/30/30 31/31/31
vt 0.500000 0.000000
f 30/30/30 32/32/32 31/31/31
vt 0.533333 1.000000
f 31/31/31 32/32/32 33/33/33
vt 0.533333 0.000000
f 32/32/32 34/34/34 33/33/33
vt 0.566667 1.000000
f 33/33/33 34/34/34 35/35/35
vt 0.566667 0.000000
f 34/34/34 36/36/36 35/35/35
vt 0.600000 1.000000
f 35/35/35 36/36/36 37/37/37
vt 0.600000 0.000000
f 36/36/36 38/38/38 37/37/37
vt 0.633333 1.000000
f 37/37/37 38/38/38 39/39/39
vt 0.633333 0.000000
f 38/38/38 40/40/40 39/39/39
vt 0.666667 1.000000
f 39/39/39 40/40/40 41/41/41
vt 0.666667 0.000000
f 40/40/40 42/42/42 41/41/41
vt 0.700000 1.000000
f 41/41/41 42/42/42 43/43/43
vt 0.700000 0.000000
f 42/42/42 44/44/44 43/43/43
vt 0.733333 1.000000
f 43/43/43 44/44/44 45/45/45
vt 0.733333 0.000000
f 44/44/44 46/46/46 45/45/45
vt 0.766667 1.000000
f 45/45/45 46/46/46 47/47/47
vt 0.766667 0.000000
f 46/46/46 48/48/48 47/47/47
vt 0.800000 1.000000
f 47/47/47 48/48/48 49/49/49
vt 0.800000 0.000000
f 48/48/48 50/50/50 49/49/49
vt 0.833333 1.000000
f 49/49/49 50/50/50 51/51/51
vt 0.833333 0.000000
f 50/50/50 52/52/52 51/51/51
vt 0.866667 1.000000
f 51/51/51 52/52/52 53/53/53
vt 0.866667 0.000000
f 52/52/52 54/54/54 53/53/53
vt 0.900000 1.000000
f 53/53/53 54/54/54 55/55/55
vt 0.900000 0.000000
f 54/54/54 56/56/56 55/55/55
vt 0.933333 1.000000
f 55/55/55 56/56/56 57/57/57
vt 0.933333 0.000000
f 56/56/56 58/58/58 57/57/57
vt 0.966667 1.000000
f 57/57/57 58/58/58 59/59/59
vt 0.966667 0.000000
f 58/58/58 60/60/60 59/59/59
vt 1.000000 1.000000
f 59/59/59 60/60/60 1/61/1
vt 1.000000 0.000000
f 60/60/60 2/62/2 1/61/1
vt 0.500000 0.500000
vt 0.396044 0.989074
f 61/63/61 1/31/1 3/64/3
vt 0.296632 0.956773
f 61/63/61 3/64/3 5/65/5
vt 0.206107 0.904508
f 61/63/61 5/65/5 7/66/7
vt 0.128428 0.834565
f 61/63/61 7/66/7 9/67/9
vt 0.066987 0.750000
f 61/63/61 9/67/9 11/68/11
vt 0.024472 0.654508
f 61/63/61 11/68/11 13/69/13
vt 0.002739 0.552264
f 61/63/61 13/69/13 15/70/15
vt 0.002739 0.447736
f 61/63/61 15/70/15 17/71/17
vt 0.024472 0.345491
f 61/63/61 17/71/17 19/72/19
vt 0.066987 0.250000
f 61/63/61 19/72/19 21/73/21
vt 0.128428 0.165435
f 61/63/61 21/73/21 23/74/23
vt 0.206107 0.095492
f 61/63/61 23/74/23 25/75/25
vt 0.296632 0.043227
f 61/63/61 25/75/25 27/76/27
vt 0.396044 0.010926
f 61/63/61 27/76/27 29/77/29
f 61/63/61 29/77/29 31/32/31
vt 0.603956 0.010926
f 61/63/61 31/32/31 33/78/33
vt 0.703368 0.043227
f 61/63/61 33/78/33 35/79/35
vt 0.793893 0.095492
f 61/63/61 35/79/35 37/80/37
vt 0.871572 0.165435
f 61/63/61 37/80/37 39/81/39
vt 0.933013 0.250000
f 61/63/61 39/81/39 41/82/41
vt 0.975528 0.345491
f 61/63/61 41/82/41 43/83/43
vt 0.997261 0.447736
f 61/63/61 43/83/43 45/84/45
vt 0.997261 0.552264
f 61/63/61 45/84/45 47/85/47
vt 0.975528 0.654508
f 61/63/61 47/85/47 49/86/49
vt 0.933013 0.750000
f 61/63/61 49/86/49 51/87/51
vt 0.871572 0.834565
f 61/63/61 51/87/51 53/88/53
vt 0.793893 0.904508
f 61/63/61 53/88/53 55/89/55
vt 0.703368 0.956773
f 61/63/61 55/89/55 57/90/57
vt 0.603956 0.989074
f 61/63/61 57/90/57 59/91/59
f 61/63/61 59/91/59 1/31/1
f 62/63/62 2/32/2 60/78/60
f 62/63/62 60/78/60 58/79/58
f 62/63/62 58/79/58 56/80/56
f 62/63/62 56/80/56 54/81/54
f 62/63/62 54/81/54 52/82/52
f 62/63/62 52/82/52 50/83/50
f 62/63/62 50/83/50 48/84/48
f 62/63/62 48/84/48 46/85/46
f 62/63/62 46/85/46 44/86/44
f 62/63/62 44/86/44 42/87/42
f 62/63/62 42/87/42 40/88/40
f 62/63/62 40/88/40 38/89/38
f 62/63/62 38/89/38 36/90/36
f 62/63/62 36/90/36 34/91/34
f 62/63/62 34/91/34 32/31/32
f 62/63/62 32/31/32 30/64/30
f 62/63/62 30/64/30 28/65/28
f 62/63/62 28/65/28 26/66/26
f 62/63/62 26/66/26 24/67/24
f 62/63/62 24/67/24 22/68/22
f 62/63/62 22/68/22 20/69/20
f 62/63/62 20/69/20 18/70/18
f 62/63/62 18/70/18 16/71/16
f 62/63/62 16/71/16 14/72/14
f 62/63/62 14/72/14 12/73/12
f 62/63/62 12/73/12 10/74/10
f 62/63/62 10/74/10 8/75/8
f 62/63/62 8/75/8 6/76/6
f 62/63/62 6/76/6 4/77/4
f 62/63/62 4/77/4 2/32/2
# 120 faces, 91 coords texture

# End of File
